<svg xmlns="http://www.w3.org/2000/svg" viewBox="0 0 512 512">
  <!-- Background -->
  <rect width="512" height="512" rx="64" fill="#0a0a0a"/>
  <!-- Outer ring -->
  <path fill="#ffffff" d="M256 72c-101.6 0-184 82.4-184 184s82.4 184 184 184c40.3 0 77.6-13 108-35l-53.6-53.6c-16 10-34.9 15.6-54.4 15.6-58.7 0-106-47.3-106-106s47.3-106 106-106 106 47.3 106 106c0 19.5-5.3 37.7-14.4 53.4l54.2 54.2c21.3-30.1 33.6-66.8 33.6-107.6 0-101.6-82.4-184-184-184z"/>
  <!-- Inner circle (hole) -->
  <circle cx="256" cy="256" r="56" fill="#0a0a0a"/>
  <!-- Arrow tail going to bottom right -->
  <polygon fill="#ffffff" points="290,290 440,440 376,440 258,322"/>
</svg>
