<svg xmlns="http://www.w3.org/2000/svg" viewBox="0 0 512 512" fill="currentColor">
  <!-- Outer ring -->
  <path d="M256 48c-114.9 0-208 93.1-208 208s93.1 208 208 208c45.5 0 87.6-14.6 121.9-39.4l-60.5-60.5c-18.1 11.3-39.4 17.9-61.4 17.9-66.3 0-120-53.7-120-120s53.7-120 120-120 120 53.7 120 120c0 22-5.9 42.6-16.2 60.3l61.2 61.2c24-34 38-75.4 38-120.5 0-114.9-93.1-208-208-208z"/>
  <!-- Inner circle (hole) -->
  <circle cx="256" cy="256" r="64"/>
  <!-- Arrow/checkmark tail going to bottom right -->
  <polygon points="295,295 472,472 400,472 260,332"/>
</svg>
